<svg width="140" height="127" viewBox="0 0 140 127" fill="none" xmlns="http://www.w3.org/2000/svg">
<path d="M127.499 24.79C128.635 24.7269 129.455 24.4746 129.455 23.4654C129.455 23.15 129.392 22.8346 129.265 22.393C129.076 21.8253 129.013 21.2576 129.013 20.6899C129.013 19.8699 129.202 19.0498 129.518 18.2298C129.959 17.0313 130.149 15.8959 130.149 14.6974C130.149 13.562 129.959 12.3635 129.644 11.165C129.392 10.2819 129.076 9.33568 128.887 8.45258C128.761 8.0741 128.761 7.69563 128.761 7.31715C128.761 6.05558 129.392 5.17247 130.716 4.4786C132.104 3.72166 133.681 3.2801 135.195 2.96471C135.321 2.96471 135.447 2.90163 135.51 2.90163C135.889 2.90163 136.204 3.09087 136.456 3.46934C137.276 4.66784 138.033 5.80326 138.79 7.06484C139.421 8.26334 139.673 9.39876 139.673 10.6603C139.673 11.5434 139.547 12.4265 139.295 13.3096C139.232 13.625 139.169 13.9404 138.98 14.1928C137.592 16.7159 137.024 19.4283 136.835 22.2038C136.835 22.393 136.772 22.5192 136.772 22.7084C136.519 23.7807 136.33 24.79 136.33 25.7993C136.33 27.3132 136.709 28.764 137.592 30.2148C137.907 30.7194 138.096 31.2871 138.096 31.8548C138.096 32.5487 137.844 33.2426 137.339 33.8103C135.321 36.2704 135.195 39.2351 134.753 42.1367C134.69 42.4521 134.69 42.7044 134.69 43.0198C134.69 43.7768 134.816 44.4706 135.195 45.1645C135.763 46.2368 136.015 47.4353 136.015 48.5708C136.015 49.3277 135.889 50.0216 135.699 50.7785C135.069 52.8601 134.249 54.8786 134.059 57.1495C133.996 57.9064 133.366 58.5372 132.419 58.6634H132.23C131.41 58.6634 130.779 58.2849 130.338 57.6541C129.833 56.8972 129.581 56.0771 129.581 55.194C129.518 54.3109 129.328 53.6801 128.382 53.3017C127.121 52.734 126.616 51.7247 126.616 50.4V49.9585C126.679 48.6969 126.679 47.4353 126.995 46.1738C127.121 45.7322 127.184 45.2906 127.184 44.8491C127.184 44.2814 127.058 43.7137 126.805 43.146C126.553 42.389 126.427 41.6951 126.427 41.0013C126.427 40.1813 126.553 39.4243 126.805 38.6674C126.868 38.2889 126.995 37.9104 127.058 37.5319V37.2166C127.058 36.5227 126.742 36.0811 126.048 35.8919C124.85 35.5134 123.651 35.1349 122.327 35.1349C121.254 35.198 120.624 35.5765 120.497 36.6488C120.245 38.0366 120.056 39.4874 120.056 40.9382C120.056 42.2629 119.867 43.3983 118.794 44.3445C118.353 44.7229 118.164 45.1645 118.164 45.6691C118.164 45.9214 118.227 46.2368 118.353 46.5522C118.605 47.5615 118.92 48.5708 119.047 49.58C119.11 49.9585 119.173 50.337 119.173 50.7154C119.173 52.8601 117.911 54.374 115.64 54.9417C115.262 55.0048 114.82 55.0679 114.442 55.131C113.054 55.3202 112.802 55.5094 112.676 56.8341C112.549 57.5279 112.549 58.2849 112.486 58.9788C112.423 59.6726 112.36 60.4296 112.234 61.1234C112.045 61.9435 111.54 62.5112 110.657 62.7004C110.531 62.7004 110.468 62.7635 110.342 62.7635C109.711 62.7635 108.954 62.1958 108.576 61.3758C108.26 60.6819 108.071 59.925 108.008 59.1049V55.2571C108.008 53.9325 107.882 52.5447 107.377 51.2831C107.188 50.8416 107.062 50.4 107.062 49.9585C107.062 49.1385 107.44 48.4446 107.945 47.6876C108.449 46.9938 108.954 46.2999 109.396 45.543C109.711 44.9753 109.9 44.4075 109.9 43.8398C109.9 43.3352 109.711 42.8306 109.396 42.3259C108.702 41.2536 108.386 40.1813 108.386 39.1089C108.386 37.7843 108.891 36.4596 109.585 35.1349C110.279 33.8734 111.099 32.6749 111.856 31.4764C112.297 30.7194 112.802 30.0256 113.243 29.2686C113.622 28.5747 113.811 28.1332 113.811 27.6916C113.811 27.187 113.433 26.7455 112.676 25.9254C111.666 24.8531 110.594 23.7177 109.585 22.5822C108.386 21.2576 107.756 19.8068 107.756 18.1036C107.756 17.6621 107.819 17.2836 107.882 16.8421C108.008 16.2744 108.071 15.7066 108.071 15.0759C108.071 14.5712 108.008 14.0666 107.882 13.562C107.819 13.2466 107.819 12.9312 107.819 12.6158C107.819 11.3542 108.26 10.2819 109.017 9.2726C109.396 8.76797 109.774 8.26334 110.216 7.88486C111.919 6.37097 113.622 4.98324 115.325 3.53242C116.082 2.90163 116.965 2.71239 117.848 2.71239C118.227 2.71239 118.605 2.71239 118.984 2.77547C120.182 2.96471 120.939 3.72166 121.317 4.85708C121.507 5.36171 121.57 5.86634 121.57 6.37097C121.57 7.12792 121.381 7.88486 121.128 8.57873C120.75 9.58799 120.371 10.5342 120.308 11.6065V11.9219C120.308 12.9943 120.561 14.0666 121.317 14.9497C121.444 15.1389 121.633 15.3282 121.759 15.5174C122.453 16.2113 122.768 17.0313 122.768 17.9144C122.768 18.356 122.642 18.7975 122.516 19.3021C122.264 20.0591 122.137 20.816 121.948 21.573C121.885 21.7622 121.885 21.8884 121.885 22.0776C121.885 22.7084 122.201 23.213 122.768 23.6546C123.714 24.4746 124.787 24.79 126.111 24.79H127.499ZM133.933 62.5743C133.87 62.7635 133.87 63.0158 133.807 63.2051C133.681 63.8989 133.176 64.3405 132.546 64.4036H132.356C131.725 64.4036 131.221 64.0882 130.969 63.5835C130.779 63.0789 130.653 62.6373 130.653 62.1958C130.653 61.6912 130.779 61.2496 130.905 60.8081C131.095 60.3034 131.473 59.988 131.978 59.9249C132.104 59.8619 132.23 59.8619 132.293 59.8619C132.735 59.8619 133.05 60.1142 133.366 60.4927C133.87 61.0604 133.87 61.8173 133.933 62.5743Z" fill="#FF9B63"/>
<path d="M71.6414 42.2629C71.6414 40.6228 72.146 38.9828 72.5245 37.4058C72.7137 36.3965 73.3445 35.5134 74.1014 34.7565C74.7322 34.1257 75.363 33.558 75.9938 32.9272C76.4354 32.5487 76.94 32.2964 77.5077 32.2964C77.6969 32.2964 77.9493 32.3595 78.2016 32.4226C78.9585 32.6749 79.5262 33.3057 79.5262 33.9995V34.5042C79.5262 35.955 80.2832 36.9642 80.7247 38.2258C81.3555 39.7397 81.9863 41.3167 82.6171 42.8306C82.9325 43.7767 83.311 44.6599 83.9417 45.4168C84.4464 46.0476 85.0141 46.5522 85.8341 46.7415C85.9603 46.7415 86.0234 46.8045 86.1495 46.8045C86.6541 46.8045 87.0326 46.4261 87.0326 45.9214V45.7322C86.9695 45.1645 86.8434 44.5968 86.6541 44.0921C86.4018 43.4614 86.2757 42.8306 86.2757 42.1998C86.2757 40.812 86.9695 39.6135 88.2311 38.5412C88.9881 37.9104 89.8081 37.2165 90.3127 36.3334C90.8173 35.4503 91.1327 34.6303 91.1327 33.7472C91.1327 33.3057 91.0697 32.8641 90.9435 32.4226C90.6281 31.5394 90.1866 30.8456 89.2404 30.5933C88.9881 30.5302 88.7988 30.404 88.5465 30.404C87.0326 30.0256 85.771 29.2055 84.5725 28.2593C82.3017 26.4931 79.7785 25.1685 77.0031 24.4115C75.9938 24.1592 74.9845 23.7807 74.1014 23.3392C72.7768 22.6453 72.0198 21.3837 72.0198 20.0591C72.0198 19.2391 72.3352 18.356 72.9029 17.6621C73.3445 17.0313 73.9753 16.5267 74.6061 15.959C75.2999 15.3282 75.6153 14.6343 75.6153 13.7512C75.6153 13.4989 75.6153 13.2466 75.5523 12.9943C75.363 12.3635 75.2369 11.7327 75.2369 11.1019V10.8496C75.2369 9.58799 75.6784 8.51565 76.8769 7.94794C77.3815 7.63254 77.8862 7.38023 78.3908 7.12792C79.5262 6.56021 80.4724 5.6771 80.977 4.4786C81.8601 2.14468 83.6894 1.00926 85.9603 0.504631C87.1588 0.252315 88.2942 0 89.4927 0C89.9973 0 90.4389 0.0630788 90.9435 0.126161C92.2051 0.315395 93.2143 0.820026 93.9082 1.89237C94.4759 2.90163 95.1067 3.65858 96.3683 3.65858H96.4944C96.8098 3.65858 97.1252 3.78473 97.3775 3.91089C98.7022 4.54168 100.027 5.10939 101.288 5.74018C102.55 6.37097 103.055 6.93868 103.055 7.94794C103.055 8.32641 102.992 8.70489 102.865 9.20952C102.739 9.65107 102.55 10.0926 102.55 10.5342C102.55 10.6603 102.613 10.7234 102.613 10.8496V11.0388C102.613 11.3542 102.424 11.6696 102.172 11.8588C101.478 12.4896 101.162 13.1204 101.162 13.8774C101.162 14.382 101.352 14.9497 101.667 15.5174C101.982 16.1482 102.172 16.779 102.172 17.4729C102.172 17.9775 102.045 18.4821 101.856 18.9867C101.478 19.996 100.784 20.5637 99.8376 20.5637C99.5853 20.5637 99.333 20.5006 99.0176 20.4376C97.2514 19.9329 96.4314 18.6083 96.116 16.9682C96.0529 16.4636 96.0529 16.022 96.0529 15.5174C96.0529 14.9497 95.7375 14.4451 95.359 14.0666C95.1698 13.8774 94.9175 13.6881 94.6652 13.6881C94.539 13.6881 94.4759 13.6881 94.3498 13.8143C93.2774 14.6974 92.2682 15.0128 91.1327 15.0128C90.3758 15.0128 89.5558 14.8235 88.7357 14.5712C88.5465 14.5081 88.4203 14.5081 88.2942 14.5081C87.7896 14.5081 87.5372 14.8235 87.2218 15.3912C86.9695 16.022 86.8434 16.6528 86.8434 17.1575C86.8434 18.1667 87.2849 18.9867 88.2311 19.8699C90.7543 22.1407 93.6559 23.4023 97.0622 23.7177C99.5222 23.9069 101.856 24.6638 103.875 26.3039C104.316 26.6193 104.821 26.8716 105.325 27.1239C105.704 27.4393 105.956 27.6916 105.956 27.944C105.956 28.1963 105.83 28.3855 105.578 28.7009C104.695 29.8363 104.379 31.0979 104.316 32.4856C104.253 33.1164 104.127 33.7472 104.127 34.378C104.064 35.6396 103.622 36.6488 102.739 37.595C102.298 38.0366 101.919 38.5412 101.541 39.0458C101.036 39.8028 100.784 40.5597 100.784 41.3167C100.784 41.6951 100.847 42.0736 100.973 42.4521C101.415 43.8398 101.793 45.2276 102.235 46.5522C102.55 47.4353 102.676 48.3815 102.676 49.2646C102.676 50.2108 102.55 51.0939 102.361 51.977C102.298 52.1662 102.235 52.2924 102.172 52.4816C101.919 52.9863 101.415 53.4278 100.847 53.4278H100.721C100.09 53.3647 99.6484 53.1124 99.3961 52.5447C98.9545 51.7878 99.0176 50.8416 98.7653 50.0216C98.7022 49.7692 98.4499 49.6431 98.2607 49.6431C98.1345 49.6431 98.0714 49.6431 98.0083 49.7062C97.3145 50.0846 96.936 50.7154 96.6837 51.3462C96.3683 52.1662 96.1791 53.0493 95.9898 53.8694C95.8006 54.5632 95.7375 55.3202 95.5483 56.0141C94.4759 58.8526 92.6466 60.6819 89.4927 61.0604C89.0511 61.1234 88.5465 61.1234 88.105 61.1865C87.7265 61.2496 87.4742 61.5019 87.4742 61.8173C87.4111 62.385 87.4111 62.9527 87.348 63.5204C87.2219 64.2143 86.7803 64.6559 86.1495 64.782H85.771C85.2033 64.782 84.6356 64.5297 84.3202 63.8989C84.131 63.5204 83.9417 63.0158 83.8787 62.5743C83.7525 61.2496 83.374 59.988 83.374 58.6634C83.374 58.2218 83.4371 57.8433 83.5002 57.4018C83.5633 57.1495 83.5633 56.8972 83.5633 56.7079C83.5633 55.8879 83.2479 55.2571 82.4909 54.6894C81.5447 54.0586 80.8509 53.1755 80.0939 52.3555C79.5893 51.7247 79.0216 51.157 78.3908 50.6524C78.1385 50.4 77.8862 50.337 77.6969 50.337C77.3815 50.337 77.0661 50.5893 76.94 51.0308C76.6877 51.6616 76.4984 52.2293 75.9938 52.6709C75.5523 52.9863 75.1738 53.1124 74.7322 53.1124C74.2907 53.1124 73.786 52.9232 73.4076 52.4816C72.966 52.0401 72.7137 51.4724 72.5875 50.8416C72.2721 49.3277 71.8937 47.7507 71.8937 46.1738V45.8584C71.8937 44.8491 71.7044 43.8398 71.6414 42.7675V42.2629ZM76.4354 56.7079C76.3723 57.0233 76.3092 57.3387 76.183 57.591C75.9307 58.1587 75.4261 58.4741 74.9215 58.4741C74.543 58.4741 74.1645 58.2849 73.8491 57.9064C73.4707 57.4018 73.3445 56.8972 73.3445 56.3925C73.3445 55.8879 73.4707 55.4463 73.786 55.0048C74.1014 54.6263 74.4799 54.4371 74.8584 54.4371C75.363 54.4371 75.8676 54.7525 76.12 55.3202C76.3092 55.6987 76.3092 56.2033 76.4354 56.7079Z" fill="#FF9B63"/>
<path d="M66.3363 44.0921C65.8948 46.4891 66.0209 49.2015 65.1378 51.7878C64.3178 54.0586 63.8132 56.3925 63.6239 58.7895C63.5609 59.6095 63.2455 60.3034 62.5516 60.8711C62.2362 61.1234 61.8577 61.2496 61.5423 61.2496C61.0377 61.2496 60.5962 60.9973 60.2808 60.5557C60.0284 60.1773 59.8392 59.7357 59.65 59.2942C59.3346 58.411 59.2715 57.5279 58.0099 57.5279H57.8207C57.0637 57.5279 56.6853 56.8341 56.4329 56.1402C56.1806 55.3833 55.9914 54.6263 55.7391 53.8694C55.2344 52.4816 54.099 51.7247 52.8374 51.157C52.5221 51.0308 52.2697 50.9677 52.0174 50.9677C51.5759 50.9677 51.1974 51.2201 50.7558 51.7247C50.1881 52.4186 49.8727 53.2386 49.6835 54.1217C49.5573 54.8786 49.305 55.6356 48.8635 56.3295C48.4219 56.8972 47.8542 57.2126 47.2865 57.2126C46.7188 57.2126 46.088 56.8341 45.7095 56.2033C45.7095 56.1402 45.6465 56.0771 45.6465 56.014C45.3941 53.9324 43.5648 54.0586 42.2402 53.6801C42.114 53.6171 41.9879 53.6171 41.9248 53.6171C41.4202 53.6171 40.9155 53.9955 40.6001 54.4371L39.654 56.1402C39.4647 56.5818 39.3386 57.0233 39.0862 57.4018C38.7709 57.8433 38.3293 58.0957 37.8877 58.0957C37.5093 58.0957 37.1308 57.9064 36.8154 57.6541L36.4369 57.2756C35.4907 55.7617 35.2384 53.9955 34.9861 52.2924V51.8508C34.9861 50.7154 35.3646 49.6431 36.1215 48.76C36.6892 48.003 36.9416 47.2461 36.9416 46.4891C36.9416 46.2999 36.8785 46.0476 36.8785 45.8584C36.8154 45.4168 36.8154 44.9122 36.8154 44.4706C36.8154 42.7044 37.1939 40.9382 37.9508 39.2981C38.3293 38.352 38.5816 37.3427 38.5816 36.3965C38.5816 35.6396 38.4555 34.9457 38.2031 34.1888C37.8877 33.3057 37.6985 32.4856 37.6985 31.6025C37.6985 30.5302 37.9508 29.4578 38.3924 28.3855C38.6447 27.8178 38.8339 27.3132 39.0232 26.8085C39.2124 26.2408 39.3386 25.6731 39.3386 25.1054C39.3386 24.4746 39.2124 23.9069 38.8339 23.3392C38.2662 22.4561 38.0139 21.6361 38.0139 20.816C38.0139 19.9329 38.3293 18.9867 38.7709 18.1036C39.2755 17.0944 39.5909 16.0851 39.5909 15.0759C39.5909 14.2558 39.4016 13.4358 39.0862 12.6158C39.0232 12.4896 38.9601 12.3004 38.897 12.1742C38.7709 11.6065 38.7078 11.0388 38.7078 10.5342C38.7078 7.50639 40.9155 5.29862 44.0064 5.29862C44.511 5.29862 45.0787 5.3617 45.6465 5.48786C46.0249 5.61402 46.4034 5.6771 46.7819 5.80326C47.4757 6.05557 48.1065 6.18173 48.8004 6.18173C49.4943 6.18173 50.2512 6.05557 50.9451 5.6771C51.3235 5.55094 51.702 5.3617 52.0805 5.29862C52.7113 5.17247 53.3421 5.04631 53.9098 5.04631C54.7298 5.04631 55.4868 5.23555 56.2437 5.61402C57.1268 6.11865 58.0099 6.43404 58.8299 6.93867C59.5869 7.31715 60.4069 7.50639 61.1639 7.50639C61.6054 7.50639 62.047 7.44331 62.4885 7.38022C62.8039 7.31715 63.1193 7.19099 63.4347 7.12791C63.8762 7.06483 64.3178 7.00175 64.6963 7.00175C66.2102 7.00175 67.4718 7.63254 68.6703 8.70488C69.1749 9.14644 69.4272 9.65107 69.4272 10.2188C69.4272 10.4711 69.3641 10.7865 69.238 11.1019C69.0487 11.6065 68.7333 12.1111 68.481 12.5527C68.1025 13.2466 67.8502 14.0035 67.8502 14.7605C67.8502 15.3282 67.9764 15.8959 68.2918 16.4636C68.9226 17.599 69.1118 18.6714 69.1118 19.8068C69.1118 21.2576 68.7333 22.7084 68.481 24.1592C68.3549 24.7269 68.1025 25.1685 67.661 25.61C67.3456 25.9254 66.904 26.1147 66.4625 26.1147C65.9579 26.1147 65.4532 25.8623 65.1378 25.4208C64.8224 24.9792 64.6332 24.4746 64.507 23.9069C64.444 23.213 64.2547 22.5192 64.1916 21.7622C64.0655 20.1852 63.1824 18.9867 62.4254 17.6621C62.2362 17.3467 61.9208 17.2205 61.6054 17.2205C61.4793 17.2205 61.29 17.2205 61.1639 17.2836L58.893 18.0406C57.8207 18.4821 56.7483 18.7975 55.676 18.7975C55.2344 18.7975 54.7298 18.7344 54.2883 18.6083C53.279 18.356 52.2067 18.2298 51.1974 18.1036C50.5035 18.0406 49.7466 18.0406 49.0527 18.0406C48.3588 18.1036 47.8542 18.4821 47.665 19.176C47.5388 19.6175 47.4757 20.0591 47.4127 20.5637C47.4127 20.6268 47.3496 20.753 47.3496 20.816C47.3496 21.1945 47.6019 21.573 47.9804 21.7622C49.0527 22.2038 49.6835 23.0869 50.3774 24.0331C50.9451 24.7269 51.4497 25.0423 52.0174 25.0423C52.522 25.0423 53.0267 24.79 53.6575 24.2854C54.2252 23.8438 54.6667 23.2761 55.2344 22.8346C56.4329 21.9515 57.7576 21.3837 59.2084 21.3837H59.4607C60.7854 21.3837 61.3531 21.8884 61.6054 23.15C61.9208 24.4746 62.11 25.7993 62.3624 27.1239C62.4254 27.5655 62.4885 28.007 62.4885 28.3855C62.4885 29.3948 62.2362 30.3409 61.6054 31.224C61.2269 31.7918 61.1008 32.3595 61.1008 32.9903C61.0377 34.6934 60.8485 36.3334 60.7223 37.9735C60.6592 38.6674 60.47 39.2351 60.0284 39.7397C59.65 40.2443 59.1453 40.4336 58.7038 40.4336C58.1361 40.4336 57.5684 40.1813 57.1899 39.6135C56.8114 39.0458 56.5591 38.352 56.4329 37.6581C56.3699 37.0904 56.1175 36.6488 55.5498 36.6488H55.4237C55.1714 36.6488 54.9821 36.7119 54.7929 36.7119C52.9005 36.7119 51.5759 35.7026 50.5666 34.2518C50.3143 33.9364 49.9989 33.621 49.7466 33.3687C49.3681 33.0533 48.9896 32.9272 48.5481 32.9272C48.0434 32.9272 47.5388 33.1164 47.0342 33.3687C46.4034 33.6841 46.2142 34.2518 46.2142 34.9457V35.198C46.2772 35.955 46.4665 36.6488 46.7819 37.2796C47.2234 38.0996 47.5388 39.0458 47.5388 39.992C47.5388 40.3074 47.4757 40.6859 47.4127 41.0013C47.3496 41.2536 47.3496 41.5059 47.3496 41.8213C47.3496 42.0736 47.3496 42.389 47.4127 42.6413C47.9173 44.1552 47.9804 44.786 48.9896 44.786C49.305 44.786 49.7466 44.7229 50.3143 44.5968C51.0082 44.4075 51.7651 44.3445 52.459 44.1552C53.2159 43.9029 53.9729 43.7767 54.7929 43.7767C55.4868 43.7767 56.2437 43.9029 56.9376 43.966C57.1899 44.0291 57.3791 44.0921 57.6314 44.1552C58.073 44.2814 58.4515 44.3445 58.8299 44.3445C59.7761 44.3445 60.5962 43.966 61.29 43.146C61.7947 42.5782 62.3624 42.0105 62.9931 41.5059C63.3716 41.1274 63.8763 40.812 64.3809 40.6228C64.5701 40.5597 64.6963 40.4966 64.8855 40.4966C65.3271 40.4966 65.7055 40.812 65.9579 41.2536C66.2733 41.8213 66.3363 42.4521 66.3363 43.209V44.0921ZM49.2419 61.1865C49.2419 61.8804 48.9896 62.6373 48.485 63.2051C48.1696 63.5835 47.7911 63.7728 47.3496 63.7728C46.908 63.7728 46.5296 63.5835 46.2142 63.2051C45.8357 62.7635 45.6465 62.0696 45.6465 61.4388C45.6465 60.3665 46.088 59.2942 46.908 58.7895C47.0973 58.6634 47.2865 58.6003 47.5388 58.6003C47.9804 58.6003 48.485 58.8526 48.7373 59.2311C49.1158 59.7988 49.2419 60.4296 49.2419 61.1865ZM67.5348 28.764C67.4718 29.0163 67.4717 29.2055 67.4717 29.3317C67.4087 29.8363 67.2825 30.2779 66.7148 30.4671H66.4625C66.0209 30.4671 65.5794 30.2148 65.3271 29.7732C65.1378 29.4578 65.0747 29.2055 65.0747 28.8901C65.0747 28.5117 65.264 28.1332 65.4532 27.7547C65.6425 27.4393 65.9579 27.2501 66.2732 27.2501H66.4625C66.841 27.3132 67.1564 27.5655 67.3456 27.9439C67.4717 28.2593 67.4718 28.5747 67.5348 28.764Z" fill="#FF9B63"/>
<path d="M0 42.2629C0 40.6228 0.504631 38.9828 0.883104 37.4058C1.07234 36.3965 1.70313 35.5134 2.46008 34.7565C3.09087 34.1257 3.72165 33.558 4.35244 32.9272C4.794 32.5487 5.29863 32.2964 5.86634 32.2964C6.05557 32.2964 6.30789 32.3595 6.56021 32.4226C7.31715 32.6749 7.88486 33.3057 7.88486 33.9995V34.5042C7.88486 35.955 8.64181 36.9642 9.08336 38.2258C9.71415 39.7397 10.3449 41.3167 10.9757 42.8306C11.2911 43.7767 11.6696 44.6599 12.3004 45.4168C12.805 46.0476 13.3727 46.5522 14.1928 46.7415C14.3189 46.7415 14.382 46.8045 14.5081 46.8045C15.0128 46.8045 15.3912 46.4261 15.3912 45.9214V45.7322C15.3282 45.1645 15.202 44.5968 15.0128 44.0921C14.7605 43.4614 14.6343 42.8306 14.6343 42.1998C14.6343 40.812 15.3282 39.6135 16.5897 38.5412C17.3467 37.9104 18.1667 37.2165 18.6714 36.3334C19.176 35.4503 19.4914 34.6303 19.4914 33.7472C19.4914 33.3057 19.4283 32.8641 19.3021 32.4226C18.9867 31.5394 18.5452 30.8456 17.599 30.5933C17.3467 30.5302 17.1575 30.404 16.9051 30.404C15.3913 30.0256 14.1297 29.2055 12.9312 28.2593C10.6603 26.4931 8.13718 25.1685 5.36171 24.4115C4.35244 24.1592 3.34318 23.7807 2.46008 23.3392C1.13542 22.6453 0.378473 21.3837 0.378473 20.0591C0.378473 19.2391 0.693868 18.356 1.26158 17.6621C1.70313 17.0313 2.33392 16.5267 2.96471 15.959C3.65858 15.3282 3.97397 14.6343 3.97397 13.7512C3.97397 13.4989 3.97397 13.2466 3.91089 12.9943C3.72165 12.3635 3.5955 11.7327 3.5955 11.1019V10.8496C3.5955 9.58799 4.03705 8.51565 5.23555 7.94794C5.74018 7.63254 6.24481 7.38023 6.74944 7.12792C7.88486 6.56021 8.83105 5.6771 9.33568 4.4786C10.2188 2.14468 12.0481 1.00926 14.3189 0.504631C15.5174 0.252315 16.6528 0 17.8513 0C18.356 0 18.7975 0.0630788 19.3021 0.126161C20.5637 0.315395 21.573 0.820026 22.2668 1.89237C22.8346 2.90163 23.4653 3.65858 24.7269 3.65858H24.8531C25.1685 3.65858 25.4839 3.78473 25.7362 3.91089C27.0608 4.54168 28.3855 5.10939 29.6471 5.74018C30.9087 6.37097 31.4133 6.93868 31.4133 7.94794C31.4133 8.32641 31.3502 8.70489 31.2241 9.20952C31.0979 9.65107 30.9087 10.0926 30.9087 10.5342C30.9087 10.6603 30.9717 10.7234 30.9717 10.8496V11.0388C30.9717 11.3542 30.7825 11.6696 30.5302 11.8588C29.8363 12.4896 29.5209 13.1204 29.5209 13.8774C29.5209 14.382 29.7102 14.9497 30.0256 15.5174C30.3409 16.1482 30.5302 16.779 30.5302 17.4729C30.5302 17.9775 30.404 18.4821 30.2148 18.9867C29.8363 19.996 29.1424 20.5637 28.1963 20.5637C27.9439 20.5637 27.6916 20.5006 27.3762 20.4376C25.61 19.9329 24.79 18.6083 24.4746 16.9682C24.4115 16.4636 24.4115 16.022 24.4115 15.5174C24.4115 14.9497 24.0961 14.4451 23.7177 14.0666C23.5284 13.8774 23.2761 13.6881 23.0238 13.6881C22.8976 13.6881 22.8346 13.6881 22.7084 13.8143C21.6361 14.6974 20.6268 15.0128 19.4914 15.0128C18.7344 15.0128 17.9144 14.8235 17.0944 14.5712C16.9051 14.5081 16.779 14.5081 16.6528 14.5081C16.1482 14.5081 15.8959 14.8235 15.5805 15.3912C15.3282 16.022 15.202 16.6528 15.202 17.1575C15.202 18.1667 15.6436 18.9867 16.5897 19.8699C19.1129 22.1407 22.0145 23.4023 25.4208 23.7177C27.8809 23.9069 30.2148 24.6638 32.2333 26.3039C32.6749 26.6193 33.1795 26.8716 33.6841 27.1239C34.0626 27.4393 34.3149 27.6916 34.3149 27.944C34.3149 28.1963 34.1888 28.3855 33.9364 28.7009C33.0533 29.8363 32.7379 31.0979 32.6749 32.4856C32.6118 33.1164 32.4856 33.7472 32.4856 34.378C32.4226 35.6396 31.981 36.6488 31.0979 37.595C30.6563 38.0366 30.2779 38.5412 29.8994 39.0458C29.3948 39.8028 29.1424 40.5597 29.1424 41.3167C29.1424 41.6951 29.2055 42.0736 29.3317 42.4521C29.7732 43.8398 30.1517 45.2276 30.5933 46.5522C30.9087 47.4353 31.0348 48.3815 31.0348 49.2646C31.0348 50.2108 30.9087 51.0939 30.7194 51.977C30.6563 52.1662 30.5933 52.2924 30.5302 52.4816C30.2779 52.9863 29.7732 53.4278 29.2055 53.4278H29.0794C28.4486 53.3647 28.007 53.1124 27.7547 52.5447C27.3132 51.7878 27.3762 50.8416 27.1239 50.0216C27.0608 49.7692 26.8085 49.6431 26.6193 49.6431C26.4931 49.6431 26.4301 49.6431 26.367 49.7062C25.6731 50.0846 25.2946 50.7154 25.0423 51.3462C24.7269 52.1662 24.5377 53.0493 24.3485 53.8694C24.1592 54.5632 24.0961 55.3202 23.9069 56.0141C22.8346 58.8526 21.0053 60.6819 17.8513 61.0604C17.4098 61.1234 16.9051 61.1234 16.4636 61.1865C16.0851 61.2496 15.8328 61.5019 15.8328 61.8173C15.7697 62.385 15.7697 62.9527 15.7066 63.5204C15.5805 64.2143 15.1389 64.6559 14.5081 64.782H14.1297C13.562 64.782 12.9943 64.5297 12.6789 63.8989C12.4896 63.5204 12.3004 63.0158 12.2373 62.5743C12.1111 61.2496 11.7327 59.988 11.7327 58.6634C11.7327 58.2218 11.7958 57.8433 11.8588 57.4018C11.9219 57.1495 11.9219 56.8972 11.9219 56.7079C11.9219 55.8879 11.6065 55.2571 10.8496 54.6894C9.90339 54.0586 9.20952 53.1755 8.45257 52.3555C7.94794 51.7247 7.38023 51.157 6.74944 50.6524C6.49713 50.4 6.24481 50.337 6.05557 50.337C5.74018 50.337 5.42478 50.5893 5.29863 51.0308C5.04631 51.6616 4.85707 52.2293 4.35244 52.6709C3.91089 52.9863 3.53242 53.1124 3.09087 53.1124C2.64931 53.1124 2.14468 52.9232 1.76621 52.4816C1.32466 52.0401 1.07234 51.4724 0.946183 50.8416C0.630789 49.3277 0.252316 47.7507 0.252316 46.1738V45.8584C0.252316 44.8491 0.0630789 43.8398 0 42.7675V42.2629ZM4.794 56.7079C4.73092 57.0233 4.66784 57.3387 4.54168 57.591C4.28936 58.1587 3.78473 58.4741 3.2801 58.4741C2.90163 58.4741 2.52316 58.2849 2.20776 57.9064C1.82929 57.4018 1.70313 56.8972 1.70313 56.3925C1.70313 55.8879 1.82929 55.4463 2.14468 55.0048C2.46008 54.6263 2.83855 54.4371 3.21702 54.4371C3.72165 54.4371 4.22629 54.7525 4.4786 55.3202C4.66784 55.6987 4.66784 56.2033 4.794 56.7079Z" fill="#FF9B63"/>
<path d="M108.921 106.079C108.921 104.609 109.373 103.139 109.712 101.726C109.882 100.822 110.447 100.03 111.125 99.352C111.69 98.7867 112.256 98.2779 112.821 97.7126C113.217 97.3734 113.669 97.1473 114.178 97.1473C114.347 97.1473 114.574 97.2038 114.8 97.2604C115.478 97.4865 115.987 98.0518 115.987 98.6736V99.1258C115.987 100.426 116.665 101.33 117.061 102.461C117.626 103.818 118.191 105.231 118.757 106.588C119.039 107.436 119.379 108.227 119.944 108.905C120.396 109.471 120.905 109.923 121.64 110.093C121.753 110.093 121.809 110.149 121.922 110.149C122.375 110.149 122.714 109.81 122.714 109.358V109.188C122.657 108.679 122.544 108.171 122.375 107.718C122.148 107.153 122.035 106.588 122.035 106.022C122.035 104.779 122.657 103.705 123.788 102.744C124.466 102.178 125.201 101.557 125.653 100.765C126.106 99.9738 126.388 99.2389 126.388 98.4475C126.388 98.0518 126.332 97.6561 126.219 97.2604C125.936 96.4689 125.54 95.8471 124.692 95.621C124.466 95.5645 124.297 95.4514 124.07 95.4514C122.714 95.1122 121.583 94.3773 120.509 93.5294C118.474 91.9466 116.213 90.7594 113.726 90.0811C112.821 89.855 111.917 89.5158 111.125 89.1201C109.938 88.4983 109.26 87.3677 109.26 86.1805C109.26 85.4457 109.542 84.6542 110.051 84.0324C110.447 83.4671 111.012 83.0149 111.577 82.5061C112.199 81.9408 112.482 81.319 112.482 80.5276C112.482 80.3015 112.482 80.0753 112.425 79.8492C112.256 79.2839 112.143 78.7186 112.143 78.1533V77.9272C112.143 76.7966 112.538 75.8356 113.612 75.3268C114.065 75.0442 114.517 74.8181 114.969 74.592C115.987 74.0832 116.835 73.2918 117.287 72.2177C118.078 70.1261 119.718 69.1086 121.753 68.6563C122.827 68.4302 123.844 68.2041 124.918 68.2041C125.371 68.2041 125.766 68.2606 126.219 68.3172C127.349 68.4868 128.254 68.939 128.875 69.9C129.384 70.8045 129.95 71.4828 131.08 71.4828H131.193C131.476 71.4828 131.759 71.5959 131.985 71.7089C133.172 72.2742 134.359 72.783 135.489 73.3483C136.62 73.9136 137.072 74.4224 137.072 75.3268C137.072 75.666 137.016 76.0052 136.903 76.4574C136.79 76.8531 136.62 77.2489 136.62 77.6446C136.62 77.7576 136.677 77.8141 136.677 77.9272V78.0968C136.677 78.3794 136.507 78.6621 136.281 78.8317C135.659 79.397 135.376 79.9623 135.376 80.6406C135.376 81.0929 135.546 81.6016 135.829 82.1104C136.111 82.6757 136.281 83.241 136.281 83.8628C136.281 84.3151 136.168 84.7673 135.998 85.2195C135.659 86.124 135.037 86.6328 134.189 86.6328C133.963 86.6328 133.737 86.5762 133.454 86.5197C131.872 86.0675 131.137 84.8804 130.854 83.4106C130.798 82.9583 130.798 82.5626 130.798 82.1104C130.798 81.6016 130.515 81.1494 130.176 80.8102C130.006 80.6406 129.78 80.471 129.554 80.471C129.441 80.471 129.384 80.471 129.271 80.5841C128.31 81.3755 127.406 81.6582 126.388 81.6582C125.71 81.6582 124.975 81.4886 124.24 81.2625C124.07 81.2059 123.957 81.2059 123.844 81.2059C123.392 81.2059 123.166 81.4886 122.883 81.9973C122.657 82.5626 122.544 83.1279 122.544 83.5802C122.544 84.4847 122.94 85.2195 123.788 86.011C126.049 88.046 128.649 89.1766 131.702 89.4593C133.907 89.6288 135.998 90.3072 137.807 91.777C138.203 92.0596 138.655 92.2857 139.107 92.5119C139.447 92.7945 139.673 93.0206 139.673 93.2467C139.673 93.4729 139.56 93.6425 139.333 93.9251C138.542 94.9426 138.259 96.0732 138.203 97.3169C138.146 97.8822 138.033 98.4475 138.033 99.0128C137.977 100.143 137.581 101.048 136.79 101.896C136.394 102.291 136.055 102.744 135.716 103.196C135.263 103.874 135.037 104.553 135.037 105.231C135.037 105.57 135.094 105.909 135.207 106.249C135.603 107.492 135.942 108.736 136.337 109.923C136.62 110.714 136.733 111.562 136.733 112.354C136.733 113.202 136.62 113.993 136.45 114.785C136.394 114.954 136.337 115.067 136.281 115.237C136.055 115.689 135.603 116.085 135.094 116.085H134.981C134.415 116.028 134.02 115.802 133.794 115.293C133.398 114.615 133.454 113.767 133.228 113.032C133.172 112.806 132.946 112.693 132.776 112.693C132.663 112.693 132.606 112.693 132.55 112.749C131.928 113.089 131.589 113.654 131.363 114.219C131.08 114.954 130.911 115.746 130.741 116.48C130.571 117.102 130.515 117.781 130.345 118.402C129.384 120.946 127.745 122.586 124.918 122.925C124.523 122.981 124.07 122.981 123.675 123.038C123.336 123.094 123.109 123.321 123.109 123.603C123.053 124.112 123.053 124.621 122.996 125.129C122.883 125.751 122.488 126.147 121.922 126.26H121.583C121.074 126.26 120.566 126.034 120.283 125.469C120.113 125.129 119.944 124.677 119.887 124.282C119.774 123.094 119.435 121.964 119.435 120.777C119.435 120.381 119.492 120.042 119.548 119.646C119.605 119.42 119.605 119.194 119.605 119.024C119.605 118.289 119.322 117.724 118.644 117.215C117.796 116.65 117.174 115.859 116.496 115.124C116.043 114.558 115.535 114.05 114.969 113.597C114.743 113.371 114.517 113.315 114.347 113.315C114.065 113.315 113.782 113.541 113.669 113.937C113.443 114.502 113.273 115.011 112.821 115.406C112.425 115.689 112.086 115.802 111.69 115.802C111.295 115.802 110.843 115.633 110.503 115.237C110.108 114.841 109.882 114.332 109.768 113.767C109.486 112.41 109.147 110.997 109.147 109.584V109.301C109.147 108.397 108.977 107.492 108.921 106.531V106.079ZM113.217 119.024C113.16 119.307 113.104 119.59 112.991 119.816C112.765 120.324 112.312 120.607 111.86 120.607C111.521 120.607 111.182 120.438 110.899 120.098C110.56 119.646 110.447 119.194 110.447 118.742C110.447 118.289 110.56 117.894 110.843 117.498C111.125 117.159 111.464 116.989 111.804 116.989C112.256 116.989 112.708 117.272 112.934 117.781C113.104 118.12 113.104 118.572 113.217 119.024Z" fill="#FF9B63"/>
<path d="M93.3947 95.621C93.3382 95.9036 93.3382 96.1298 93.3382 96.3559C93.3382 97.9952 94.1862 99.0693 95.7125 99.8042C96.5604 100.2 97.0127 100.878 97.0127 101.783C97.0127 102.009 97.0126 102.235 96.9561 102.461C96.7865 103.309 96.73 104.157 96.6169 105.005C96.5604 105.401 96.5039 105.853 96.5039 106.305C96.5039 106.588 96.5039 106.87 96.5604 107.153C96.8431 108.736 97.2953 109.188 98.9912 109.188C101.309 109.301 103.457 109.923 105.379 111.28C106.962 112.467 107.471 113.993 107.471 115.689C107.471 115.972 107.414 116.311 107.414 116.594C107.358 117.272 107.075 117.95 106.736 118.572C106.34 119.307 105.888 119.646 105.322 119.646C104.87 119.646 104.418 119.42 103.966 118.968C103.683 118.685 103.627 118.176 103.118 118.063C102.835 118.176 102.666 118.402 102.553 118.685C102.383 118.968 102.213 119.307 102.1 119.646C101.874 120.438 100.8 120.438 100.517 121.285C100.235 121.907 100.065 122.642 99.7261 123.264C99.5 123.716 99.0477 123.999 98.5389 123.999H98.3128C97.691 123.942 97.0692 123.547 97.0692 123.038C97.0126 121.399 95.8255 120.72 94.808 119.872C94.1296 119.307 93.7904 118.516 93.3947 117.781C92.999 116.876 92.5468 115.972 92.1511 115.067C91.5293 113.71 90.6813 112.58 89.7768 111.506C88.9854 110.545 88.5897 109.527 88.5897 108.397C88.5897 107.888 88.7028 107.379 88.8158 106.87C88.9289 106.418 88.9854 106.022 88.9854 105.627C88.9854 104.214 88.194 103.196 86.5547 102.461C86.3851 102.348 86.2155 102.291 86.0459 102.291C85.8763 102.291 85.7632 102.348 85.5937 102.518C84.9718 103.139 84.4065 103.761 83.8412 104.44C83.1629 105.175 82.8237 106.022 82.8237 106.983C82.8237 107.323 82.8237 107.662 82.9368 108.001C83.0498 108.679 83.2759 109.358 83.4455 110.093C83.5586 110.545 83.6151 110.997 83.6151 111.506C83.6151 112.184 83.4455 112.919 83.0498 113.597C82.5411 114.502 82.2019 115.519 81.7496 116.537C81.467 117.102 81.4105 117.668 81.4105 118.289C81.4105 118.685 81.4105 119.081 81.467 119.477V119.759C81.467 120.72 81.1843 121.681 80.7886 122.586C80.506 123.264 79.9407 123.603 79.4319 123.603C78.9232 123.603 78.4709 123.377 78.0752 122.868C77.736 122.36 77.5664 121.851 77.5099 121.229C77.2273 119.59 76.9446 117.894 76.775 116.198C76.662 115.237 76.3793 114.389 75.5879 113.767C74.9661 113.258 74.6269 112.58 74.6269 111.845C74.6269 111.562 74.6834 111.336 74.74 111.054C74.853 110.601 74.9661 110.149 74.9661 109.697C74.9661 108.905 74.74 108.171 74.2877 107.379C74.0051 106.814 73.8355 106.305 73.8355 105.74C73.8355 104.948 74.1747 104.157 74.853 103.422C75.8705 102.405 76.3228 101.33 76.3228 100.087C76.3228 99.465 76.2097 98.7867 75.9271 98.1083C75.6444 97.4299 75.5314 96.7516 75.5314 96.1298C75.5314 94.8296 76.0401 93.6425 76.9446 92.5119L77.1142 92.3423C77.5099 91.8335 77.736 91.5509 77.736 91.3247C77.736 91.0421 77.4534 90.816 76.8881 90.3637C76.4924 90.0811 76.1532 89.6854 75.8705 89.2897C75.0226 87.9895 74.1747 86.6328 73.3833 85.2761C73.1006 84.8238 72.931 84.3716 72.931 83.8063C72.931 83.5802 72.9875 83.2975 73.0441 83.0149C73.2137 82.393 73.3267 81.7712 73.3267 81.1494C73.3267 80.471 73.2137 79.7362 72.931 79.0578C72.8179 78.7752 72.7614 78.4925 72.7614 78.2664C72.7614 77.475 73.2137 76.7401 73.8355 76.1748C74.74 75.3268 75.7575 74.705 76.9446 74.4224C78.0752 74.0832 79.0362 73.6309 79.7146 72.5569C80.3364 71.6524 81.2974 71.1436 82.428 70.9741C84.1239 70.8045 85.8198 70.6349 87.5722 70.5218H87.7983C89.0985 70.5218 90.2856 70.9175 91.3031 71.822C92.3772 72.8395 93.7905 73.1222 95.0906 73.631C95.3733 73.744 95.5994 73.744 95.8255 73.744C96.1647 73.744 96.4474 73.6875 96.7865 73.631C97.4649 73.4048 98.1432 73.1787 98.8216 73.0091C99.1608 72.8961 99.5565 72.8961 99.8957 72.8961C101.309 72.8961 102.496 73.5744 103.174 74.8746C103.514 75.4399 103.683 76.0617 103.909 76.6836C104.305 78.0403 104.644 79.397 105.209 80.6972C105.322 80.9798 105.379 81.2625 105.379 81.4886C105.379 81.9973 105.153 82.4496 104.701 82.7888C104.361 83.0714 104.022 83.3541 103.627 83.5802C102.609 84.3151 102.157 85.3326 102.157 86.5197V86.9154C102.213 87.2546 102.213 87.6503 102.213 87.9895C102.213 89.4027 101.931 90.816 101.252 92.1162C100.97 92.6249 100.913 93.1902 100.913 93.7555C100.913 94.5469 100.857 95.3383 100.744 96.0732C100.687 96.4689 100.574 96.8081 100.404 97.0908C100.065 97.7126 99.5565 98.0518 98.8216 98.0518C98.0867 98.0518 97.6345 97.5995 97.4084 96.9777C97.1822 96.5255 97.0692 96.0167 96.8996 95.5645C96.7865 95.1122 96.5039 94.8861 96.1082 94.8861H95.9386C95.0341 94.9426 94.0731 94.9992 93.3947 95.621ZM95.8821 83.241C95.7125 82.0539 95.4863 80.8102 94.8645 79.6796C94.6949 79.2839 94.3557 79.1143 94.0166 79.1143C93.9035 79.1143 93.7339 79.1143 93.6209 79.1709C92.4903 79.5666 91.6423 80.2449 91.3031 81.4886C91.1901 81.9408 91.1335 82.4496 90.964 82.9018C90.6813 83.5236 90.1726 83.8063 89.6073 83.8063C89.155 83.8063 88.7028 83.6367 88.3636 83.1845C88.0244 82.7322 87.8548 82.28 87.8548 81.7712C87.8548 81.3755 87.8548 80.9233 87.7983 80.471C87.7983 79.8492 87.3461 79.4535 86.8373 79.2274C86.7808 79.1709 86.7242 79.1709 86.6677 79.1709C86.3851 79.1709 86.159 79.51 85.9894 79.6796C85.8763 79.8492 85.7067 79.9057 85.5371 79.9057C85.3675 79.9057 85.1979 79.8492 84.9718 79.7927C84.6892 79.7362 84.4065 79.6796 84.1804 79.6796C83.5021 79.6796 83.0498 79.9623 82.5976 80.6406C82.3149 81.0363 82.2019 81.432 82.2019 81.7712C82.2019 82.2235 82.3715 82.6192 82.7672 83.1279C83.389 83.9194 83.7847 84.7108 83.8978 85.6152C84.1239 86.7458 84.6892 87.5938 85.6502 88.2156C85.8198 88.3287 85.9894 88.4983 86.1589 88.6113C86.8373 89.1766 87.1765 89.4593 87.5722 89.4593C87.9114 89.4593 88.2506 89.2897 88.9289 88.9505C89.2681 88.7809 89.5507 88.6113 89.8334 88.4417C91.1901 87.5938 92.4903 86.6893 94.0731 86.4632C94.4123 86.4067 94.7514 86.2371 94.921 85.8979C95.4863 85.1065 95.769 84.2585 95.8821 83.241ZM99.0477 98.8432C99.2738 98.9562 99.4999 98.9562 99.6695 99.0693C100.291 99.465 100.631 100.143 100.631 100.822C100.631 100.991 100.631 101.104 100.574 101.274C100.461 101.839 100.065 102.235 99.4434 102.291H99.2738C98.7651 102.291 98.3128 102.009 98.0867 101.5C97.9736 101.217 97.9171 100.878 97.9171 100.596C97.9171 100.143 98.0302 99.6911 98.3694 99.2954C98.5389 99.1258 98.8216 99.0128 99.0477 98.8432Z" fill="#FF9B63"/>
<path d="M55.8657 105.796C55.6395 105.796 55.5265 105.796 55.5265 105.853C54.9612 107.04 54.0567 107.944 53.3784 109.019C53.0957 109.471 52.9261 109.923 52.9261 110.432V112.863C52.9261 114.276 52.6435 115.633 51.8521 116.876C51.4564 117.498 51.5129 118.233 51.3433 118.911C51.2302 119.703 51.2302 120.494 50.8911 121.229C50.6084 121.851 50.2127 122.36 49.4778 122.416H49.3648C48.6864 122.416 48.2907 121.964 47.9515 121.455C47.8385 121.172 47.7254 120.946 47.6123 120.664C47.3297 119.59 46.7644 118.742 45.973 117.95C44.8424 116.933 44.3901 115.746 44.3901 114.445C44.3901 113.767 44.5032 113.032 44.7859 112.297C45.125 111.223 45.6338 110.149 46.1426 109.132C46.7079 107.944 47.1036 106.757 47.1036 105.457C47.1036 105.118 47.047 104.779 46.9905 104.383C46.8774 103.874 46.8774 103.366 46.8774 102.857C46.8774 101.161 47.3862 99.5781 48.4603 98.1083C49.4213 96.8646 49.8735 95.3949 49.8735 93.812V93.3033C49.8735 92.9641 49.817 92.5684 49.817 92.2292C49.817 90.3637 50.2127 88.5548 51.1737 86.9154C51.8521 85.7283 52.1912 84.5412 52.1912 83.2975C52.1912 82.6757 52.0782 82.1104 51.9651 81.5451C51.9086 81.2625 51.8521 80.9233 51.8521 80.6406C51.8521 79.7927 52.1347 78.9447 52.5304 78.2099C53.3784 76.6836 54.5655 75.4964 55.9787 74.4789C56.4875 74.1397 57.0528 73.9136 57.6181 73.9136C58.0138 73.9136 58.4095 74.0267 58.8052 74.2528C60.7272 75.2138 62.5927 76.2313 64.4017 77.3619C65.1931 77.8707 65.5323 78.3794 65.5323 79.0578C65.5323 79.3404 65.4757 79.7362 65.3061 80.1319C65.2496 80.4145 65.1365 80.6406 64.9669 80.9233C64.4582 81.7147 64.2321 82.5061 64.2321 83.3541C64.2321 84.0889 64.3451 84.7673 64.6278 85.5587C65.3061 87.5938 66.3237 89.5158 66.9455 91.5509C67.2281 92.3423 67.6238 93.1337 67.6804 93.9816C67.7934 94.9992 68.3022 95.621 69.2067 96.1298C70.4503 96.8647 71.0156 97.6561 71.0156 98.7867C71.0156 99.2389 70.9026 99.6911 70.733 100.256C70.2807 101.67 69.772 103.083 69.2067 104.496C68.924 105.231 68.811 105.909 68.811 106.588C68.811 107.605 69.0936 108.623 69.6589 109.584C70.1677 110.488 70.733 111.28 71.2983 112.128C71.8636 112.976 72.2028 113.824 72.2028 114.671C72.2028 115.406 71.9201 116.141 71.3548 116.876C70.9026 117.441 70.846 118.063 70.846 118.685C70.846 119.25 70.7895 119.816 70.5068 120.381C70.2242 121.003 69.6024 121.342 69.0371 121.342C68.5848 121.342 68.1891 121.172 67.85 120.833C67.4543 120.381 67.1716 119.872 67.1151 119.307C67.0585 118.968 67.0586 118.685 67.0586 118.402V118.007C67.0586 117.837 67.1151 117.611 67.1151 117.441C67.1151 116.65 66.8324 116.085 65.8149 115.689C65.1931 115.463 64.8539 114.671 64.6278 113.993C64.4017 113.315 64.0625 112.863 63.3841 112.58C62.3101 112.128 61.9143 111.28 61.9143 110.262V110.036C61.9709 108.679 62.0274 107.323 62.1405 105.966V105.514C62.1405 105.005 62.0839 104.496 61.9143 104.044C61.8013 103.818 61.5752 103.648 61.349 103.648C61.1795 103.648 61.0099 103.761 60.8403 103.874C59.8793 104.722 59.2575 105.74 59.2575 107.097V107.266C59.2575 108.001 59.2574 108.792 59.314 109.584C59.314 110.319 59.1444 110.997 58.8617 111.675C58.6356 112.184 58.1834 112.41 57.6746 112.467H57.5616C57.0528 112.467 56.7136 112.184 56.431 111.788C56.1483 111.336 55.9787 110.827 55.9787 110.262C55.9787 110.093 56.0353 109.923 56.0353 109.753C56.0918 109.471 56.0918 109.188 56.0918 108.962C56.0918 107.944 55.8657 106.983 55.8657 106.022V105.796ZM55.7526 103.083C55.8657 101.387 56.6571 100.369 57.7877 99.5781C58.4095 99.0693 59.1444 98.7301 59.8793 98.504C60.3881 98.3344 60.8403 98.2214 61.2925 98.0518C61.6317 97.8822 61.8013 97.6561 61.8013 97.4299C61.8013 97.3169 61.8013 97.1473 61.6882 97.0342C61.4056 96.4689 61.0664 95.9036 60.6707 95.3949C59.8793 94.4339 59.314 93.4163 59.314 92.1727V91.4943C59.314 91.1551 59.2009 90.816 58.9748 90.5333C58.7487 90.2507 58.5791 90.0246 58.2399 90.0246H58.1269C57.6746 90.1376 57.2789 90.3637 57.2224 90.8725V91.2682C57.2224 91.6074 57.2224 92.0031 57.2789 92.3423V92.6815C57.2789 93.699 57.0528 94.66 56.2614 95.5079C55.3569 96.582 55.0177 97.8257 55.0177 99.1824V99.465C55.0177 100.596 55.1308 101.726 55.7526 103.083ZM59.2009 115.237C59.2009 116.085 58.6922 116.763 58.1269 116.876C58.0138 116.933 57.9007 116.933 57.7877 116.933C57.2789 116.933 56.8267 116.594 56.544 116.028C56.431 115.746 56.3744 115.406 56.3744 115.124C56.3744 114.671 56.544 114.219 56.8832 113.88C57.1658 113.597 57.4485 113.484 57.7877 113.484C58.1834 113.484 58.5226 113.654 58.7487 114.05C58.9748 114.502 59.0879 114.954 59.2009 115.237Z" fill="#FF9B63"/>
<path d="M12.9455 101.613C14.5284 101.048 15.4328 99.9738 15.4328 98.4475C15.4328 98.1648 15.4328 97.9387 15.3763 97.6561C15.3198 97.4299 15.3198 97.2038 15.3198 96.9777C15.3198 95.5645 15.8851 94.4339 16.6765 93.2468C17.0722 92.738 17.3548 92.1727 17.6375 91.6074C17.8071 91.2682 17.9767 90.8725 17.9767 90.4768C17.9767 90.3637 17.9201 90.2507 17.9201 90.1376C17.7505 89.3462 17.694 88.4983 17.694 87.7068C17.694 86.4632 17.8071 85.2195 17.8071 83.9759V83.5236C17.7505 81.6582 17.694 79.8492 17.0157 78.0968C16.8461 77.7011 16.7895 77.3619 16.7895 77.0793C16.7895 76.4574 17.1287 76.0617 17.9201 75.6095C19.3334 74.7615 20.8597 74.4224 22.4425 74.4224C23.0078 74.4224 23.5731 74.4224 24.1384 74.5354C24.8167 74.6485 25.382 75.1007 25.7778 75.7791C26.5126 77.0793 27.0214 78.3229 27.0214 79.7362C27.0214 80.2449 26.9084 80.7537 26.7953 81.319C26.6822 81.7147 26.6257 82.1104 26.6257 82.4496C26.6257 82.9018 26.6822 83.3541 26.7953 83.8063C27.1345 85.6718 27.4737 87.4807 28.4347 89.1201C28.7738 89.7419 28.9999 90.3637 28.9999 91.0421C28.9999 91.3247 28.9434 91.6639 28.8304 92.0031C28.6608 92.5119 28.6042 92.9641 28.6042 93.4163C28.6042 94.8861 29.3391 96.1863 30.1305 97.4299C30.3567 97.8822 30.7524 98.0518 31.1481 98.0518C31.4873 98.0518 31.883 97.9387 32.1656 97.6561C33.4658 96.5255 33.9746 94.9992 34.2007 93.3033V93.1902C34.2007 92.6815 33.918 92.1727 33.6919 91.7204C33.4093 91.0421 33.0701 90.4203 32.7874 89.7419C32.6179 89.4027 32.5613 89.1201 32.5613 88.8374C32.5613 88.3287 32.7875 87.8199 33.1266 87.3677C33.2962 87.1415 33.5223 86.9154 33.6919 86.6893C34.2572 86.1805 34.5964 85.5587 34.5964 84.7673V84.5977C34.5964 83.4671 34.9921 82.5061 35.6139 81.6582C36.4053 80.6406 36.6315 79.5666 36.6315 78.3794V77.9837C36.5184 76.8531 36.5749 75.7226 36.2358 74.592C36.0662 74.1397 36.0096 73.631 36.0096 73.1787C36.0096 71.1436 37.5359 69.4478 39.7971 69.2782C40.4189 69.2216 41.0973 69.2216 41.7191 69.2216C43.0758 69.2216 44.4325 69.3347 45.7327 69.6739C47.146 70.0696 47.5417 70.5218 47.5982 71.9351V72.5569C47.5982 73.4048 47.4851 74.2528 47.146 75.0442C46.7503 76.0052 46.5242 76.9097 46.5242 77.8707C46.5242 78.4925 46.6372 79.0578 46.8068 79.6796C46.9199 80.0188 46.9764 80.358 46.9764 80.6406C46.9764 81.319 46.7503 81.9408 46.4111 82.5626C45.6197 84.0324 45.224 85.5587 45.1674 87.2546C45.1674 87.9895 45.0544 88.6678 44.9413 89.4027C44.8283 90.0246 44.7717 90.7029 44.4325 91.2117C42.2279 94.4339 42.5105 98.1648 42.341 101.726C42.341 102.518 42.3975 103.309 42.3975 104.1C42.3975 104.892 42.1148 105.627 41.6061 106.305C41.2669 106.701 40.8147 106.927 40.3624 106.927C39.9102 106.927 39.4014 106.644 39.1188 106.136C38.8361 105.683 38.6665 105.118 38.4404 104.609C38.3839 104.496 38.2708 104.44 38.1012 104.44C37.9316 104.44 37.8186 104.496 37.7055 104.609C37.4794 104.892 37.3098 105.288 37.3098 105.627V105.796C37.3098 107.04 36.9706 108.171 36.5749 109.358C36.4053 109.866 36.2923 110.375 36.2923 110.884C36.2923 111.054 36.2923 111.28 36.3488 111.449C36.4053 111.732 36.4053 111.958 36.4053 112.184C36.4053 113.428 35.84 114.445 35.0486 115.35C34.2572 116.198 33.7484 117.046 33.7484 118.233V118.572C33.7484 118.968 33.5789 119.42 33.4093 119.816C33.1832 120.438 32.6178 120.72 32.0526 120.72C31.5438 120.72 31.0915 120.551 30.8089 120.098C30.3567 119.477 30.1306 118.798 30.074 118.063C30.0175 117.328 29.7914 116.707 29.1696 116.254C28.4912 115.746 28.2085 115.067 28.152 114.219C28.152 113.032 27.7563 112.015 26.8518 111.167C26.117 110.545 25.7212 109.697 25.6082 108.736C25.4951 107.436 25.0429 106.249 24.4211 105.118C23.6862 103.705 23.0078 102.291 22.7817 100.709C22.7252 100.539 22.5556 100.369 22.499 100.143C21.9903 100.483 21.9337 101.048 21.8772 101.5C21.7076 103.479 20.577 105.061 19.6726 106.757L19.1638 107.436C18.3724 108.566 17.9767 109.753 17.9767 110.997C17.9767 111.562 18.0332 112.128 18.2028 112.693C18.4289 113.484 18.542 114.05 18.542 114.502C18.542 115.463 17.9767 115.972 16.4504 116.876C16.2243 116.989 15.9981 117.159 15.7155 117.272C15.4328 117.441 15.3198 117.724 15.3198 118.007C15.3763 118.742 15.4328 119.533 15.6024 120.324C15.772 121.285 15.8285 122.246 15.8285 123.264V124.168C15.8285 124.508 15.772 124.903 15.6589 125.186C15.3763 125.808 14.8675 126.147 14.3022 126.147C13.9065 126.147 13.5108 125.977 13.1716 125.638C12.4368 124.847 12.0411 123.886 11.9845 122.755V122.473C11.9845 121.568 11.928 120.777 11.0801 120.098C10.6278 119.759 10.4582 119.194 10.4582 118.685C10.4582 118.402 10.5148 118.12 10.5713 117.894C10.6278 117.668 10.6278 117.441 10.6278 117.215C10.6278 116.028 9.89294 115.18 8.98846 114.389C8.76234 114.163 8.47969 113.937 8.14051 113.767C7.97092 113.654 7.80132 113.654 7.68826 113.654C7.29255 113.654 6.95338 113.937 6.89685 114.389C6.78379 115.067 6.7838 115.689 6.72727 116.311C6.67074 116.594 6.6142 116.876 6.50114 117.159C6.21849 118.12 5.59668 118.798 4.91832 118.798H4.80526C3.90078 118.798 3.05284 117.894 2.99631 116.763C2.99631 116.254 2.93977 115.746 2.93977 115.293C2.93977 114.558 2.9963 113.824 3.05283 113.145C3.10936 112.806 3.10937 112.467 3.10937 112.128C3.10937 110.714 2.7702 109.414 2.31796 108.114C2.09184 107.323 1.86571 106.644 1.86571 105.909C1.86571 105.627 1.92224 105.288 1.97877 105.005C2.0353 104.666 2.03529 104.327 2.03529 103.931C2.09182 102.8 2.54407 101.896 3.39202 101.161C3.90078 100.709 4.35302 100.256 4.80526 99.8042C5.37055 99.1824 5.59667 98.504 5.59667 97.8257C5.59667 97.2604 5.42709 96.6951 5.03138 96.0732C4.63567 95.5645 4.18344 95.1122 3.7312 94.66C3.10937 94.0382 2.65713 93.3598 2.37448 92.5119C1.80918 90.816 1.0743 89.1766 1.0743 87.3677C1.0743 86.5197 0.791648 85.6718 0.45247 84.8804C0.169822 84.2585 0.000244141 83.6932 0.000244141 83.0714C0.000244141 82.4496 0.169825 81.8278 0.565532 81.2059C0.90471 80.6972 1.01776 80.1884 1.01776 79.6231C1.01776 79.2839 0.961248 78.9447 0.904718 78.549C0.791659 77.9837 0.678594 77.4184 0.678594 76.9097C0.678594 75.1007 1.63959 73.8571 3.67466 72.783C4.46607 72.3873 5.31401 71.9916 6.27502 71.8785C6.50114 71.822 6.78379 71.822 7.00991 71.822C7.1795 71.822 7.40562 71.822 7.51868 71.9351C8.81886 73.1222 10.6843 73.8571 11.1931 75.8356C11.2496 76.0617 11.3062 76.3444 11.3062 76.5705C11.3062 76.9662 11.1931 77.3619 11.0235 77.7011C10.6278 78.6056 10.119 79.4535 9.44069 80.2449C8.81886 80.9798 8.47969 81.8278 8.47969 82.6757C8.47969 83.5802 8.87538 84.5412 9.49721 85.3326C9.6668 85.5587 9.83639 85.7283 10.006 85.9544C11.1931 87.2546 12.0976 88.7244 12.1541 90.5333C12.1541 90.6464 12.2106 90.816 12.2672 90.929C12.5498 91.777 12.6629 92.6815 12.6629 93.5294C12.6629 94.7165 12.4368 95.8471 12.0976 97.0342C11.8715 97.6561 11.7584 98.1648 11.7584 98.6736C11.7584 99.6346 12.1541 100.483 12.9455 101.613ZM7.00991 122.303C7.00991 122.416 7.00992 122.642 6.95339 122.868C6.84033 123.716 6.33155 124.225 5.59667 124.282C4.97484 124.282 4.18342 123.773 3.9573 123.151C3.84424 122.925 3.84424 122.699 3.84424 122.416C3.84424 121.512 4.35302 120.381 5.03138 119.872C5.20097 119.816 5.37056 119.759 5.54015 119.759C5.99239 119.759 6.44463 119.985 6.67075 120.324C6.89686 120.72 7.00991 121.229 7.00991 121.907V122.303Z" fill="#FF9B63"/>
</svg>
